<svg width="286" height="71" viewBox="0 0 286 71" fill="none" xmlns="http://www.w3.org/2000/svg">
<path d="M24.4489 62V15.4545H30.0852V57H51.7216V62H24.4489ZM73.9034 62.7273C70.7519 62.7273 67.9867 61.9773 65.608 60.4773C63.2443 58.9773 61.3958 56.8788 60.0625 54.1818C58.7443 51.4848 58.0852 48.3333 58.0852 44.7273C58.0852 41.0909 58.7443 37.9167 60.0625 35.2045C61.3958 32.4924 63.2443 30.3864 65.608 28.8864C67.9867 27.3864 70.7519 26.6364 73.9034 26.6364C77.0549 26.6364 79.8125 27.3864 82.1761 28.8864C84.5549 30.3864 86.4034 32.4924 87.7216 35.2045C89.0549 37.9167 89.7216 41.0909 89.7216 44.7273C89.7216 48.3333 89.0549 51.4848 87.7216 54.1818C86.4034 56.8788 84.5549 58.9773 82.1761 60.4773C79.8125 61.9773 77.0549 62.7273 73.9034 62.7273ZM73.9034 57.9091C76.2973 57.9091 78.267 57.2955 79.8125 56.0682C81.358 54.8409 82.5019 53.2273 83.2443 51.2273C83.9867 49.2273 84.358 47.0606 84.358 44.7273C84.358 42.3939 83.9867 40.2197 83.2443 38.2045C82.5019 36.1894 81.358 34.5606 79.8125 33.3182C78.267 32.0758 76.2973 31.4545 73.9034 31.4545C71.5095 31.4545 69.5398 32.0758 67.9943 33.3182C66.4489 34.5606 65.3049 36.1894 64.5625 38.2045C63.8201 40.2197 63.4489 42.3939 63.4489 44.7273C63.4489 47.0606 63.8201 49.2273 64.5625 51.2273C65.3049 53.2273 66.4489 54.8409 67.9943 56.0682C69.5398 57.2955 71.5095 57.9091 73.9034 57.9091ZM112.091 62.7273C108.939 62.7273 106.174 61.9773 103.795 60.4773C101.432 58.9773 99.5833 56.8788 98.25 54.1818C96.9318 51.4848 96.2727 48.3333 96.2727 44.7273C96.2727 41.0909 96.9318 37.9167 98.25 35.2045C99.5833 32.4924 101.432 30.3864 103.795 28.8864C106.174 27.3864 108.939 26.6364 112.091 26.6364C115.242 26.6364 118 27.3864 120.364 28.8864C122.742 30.3864 124.591 32.4924 125.909 35.2045C127.242 37.9167 127.909 41.0909 127.909 44.7273C127.909 48.3333 127.242 51.4848 125.909 54.1818C124.591 56.8788 122.742 58.9773 120.364 60.4773C118 61.9773 115.242 62.7273 112.091 62.7273ZM112.091 57.9091C114.485 57.9091 116.455 57.2955 118 56.0682C119.545 54.8409 120.689 53.2273 121.432 51.2273C122.174 49.2273 122.545 47.0606 122.545 44.7273C122.545 42.3939 122.174 40.2197 121.432 38.2045C120.689 36.1894 119.545 34.5606 118 33.3182C116.455 32.0758 114.485 31.4545 112.091 31.4545C109.697 31.4545 107.727 32.0758 106.182 33.3182C104.636 34.5606 103.492 36.1894 102.75 38.2045C102.008 40.2197 101.636 42.3939 101.636 44.7273C101.636 47.0606 102.008 49.2273 102.75 51.2273C103.492 53.2273 104.636 54.8409 106.182 56.0682C107.727 57.2955 109.697 57.9091 112.091 57.9091ZM151.278 27.0909V31.6364H133.188V27.0909H151.278ZM138.46 18.7273H143.824V52C143.824 53.5152 144.044 54.6515 144.483 55.4091C144.938 56.1515 145.513 56.6515 146.21 56.9091C146.922 57.1515 147.672 57.2727 148.46 57.2727C149.051 57.2727 149.536 57.2424 149.915 57.1818C150.294 57.1061 150.597 57.0455 150.824 57L151.915 61.8182C151.551 61.9545 151.044 62.0909 150.392 62.2273C149.741 62.3788 148.915 62.4545 147.915 62.4545C146.4 62.4545 144.915 62.1288 143.46 61.4773C142.021 60.8258 140.824 59.8333 139.869 58.5C138.93 57.1667 138.46 55.4848 138.46 53.4545V18.7273Z" fill="#5D776B"/>
<path d="M165.46 15.4545V62H160.097V15.4545H165.46ZM175.284 62V27.0909H180.648V62H175.284ZM178.011 21.2727C176.966 21.2727 176.064 20.9167 175.307 20.2045C174.564 19.4924 174.193 18.6364 174.193 17.6364C174.193 16.6364 174.564 15.7803 175.307 15.0682C176.064 14.3561 176.966 14 178.011 14C179.057 14 179.951 14.3561 180.693 15.0682C181.451 15.7803 181.83 16.6364 181.83 17.6364C181.83 18.6364 181.451 19.4924 180.693 20.2045C179.951 20.9167 179.057 21.2727 178.011 21.2727ZM204.653 62.7273C201.502 62.7273 198.737 61.9773 196.358 60.4773C193.994 58.9773 192.146 56.8788 190.812 54.1818C189.494 51.4848 188.835 48.3333 188.835 44.7273C188.835 41.0909 189.494 37.9167 190.812 35.2045C192.146 32.4924 193.994 30.3864 196.358 28.8864C198.737 27.3864 201.502 26.6364 204.653 26.6364C207.805 26.6364 210.563 27.3864 212.926 28.8864C215.305 30.3864 217.153 32.4924 218.472 35.2045C219.805 37.9167 220.472 41.0909 220.472 44.7273C220.472 48.3333 219.805 51.4848 218.472 54.1818C217.153 56.8788 215.305 58.9773 212.926 60.4773C210.563 61.9773 207.805 62.7273 204.653 62.7273ZM204.653 57.9091C207.047 57.9091 209.017 57.2955 210.562 56.0682C212.108 54.8409 213.252 53.2273 213.994 51.2273C214.737 49.2273 215.108 47.0606 215.108 44.7273C215.108 42.3939 214.737 40.2197 213.994 38.2045C213.252 36.1894 212.108 34.5606 210.562 33.3182C209.017 32.0758 207.047 31.4545 204.653 31.4545C202.259 31.4545 200.29 32.0758 198.744 33.3182C197.199 34.5606 196.055 36.1894 195.312 38.2045C194.57 40.2197 194.199 42.3939 194.199 44.7273C194.199 47.0606 194.57 49.2273 195.312 51.2273C196.055 53.2273 197.199 54.8409 198.744 56.0682C200.29 57.2955 202.259 57.9091 204.653 57.9091ZM234.023 41V62H228.659V27.0909H233.841V32.5455H234.295C235.114 30.7727 236.356 29.3485 238.023 28.2727C239.689 27.1818 241.841 26.6364 244.477 26.6364C246.841 26.6364 248.909 27.1212 250.682 28.0909C252.455 29.0455 253.833 30.5 254.818 32.4545C255.803 34.3939 256.295 36.8485 256.295 39.8182V62H250.932V40.1818C250.932 37.4394 250.22 35.303 248.795 33.7727C247.371 32.2273 245.417 31.4545 242.932 31.4545C241.22 31.4545 239.689 31.8258 238.341 32.5682C237.008 33.3106 235.955 34.3939 235.182 35.8182C234.409 37.2424 234.023 38.9697 234.023 41Z" fill="#90E9C0"/>
<path d="M273.815 28.5322C269.349 33.502 264.332 33.8248 261.106 30.9258C257.88 28.0268 257.666 23.0038 262.132 18.034C266.598 13.0641 280.158 9.7234 280.158 9.7234C280.158 9.7234 278.281 23.5623 273.815 28.5322Z" fill="#90E9C0"/>
<path d="M256.489 14.5885C257.457 19.2024 255.55 22.1935 252.555 22.8222C249.56 23.4509 246.611 21.4791 245.642 16.8652C244.674 12.2513 248.423 3.13834 248.423 3.13834C248.423 3.13834 255.52 9.97463 256.489 14.5885Z" fill="#90E9C0"/>
</svg>
